<svg xmlns="http://www.w3.org/2000/svg" viewBox="0 0 84.72 505.43"><defs><style>.cls-1{fill:#4e4e4e;}.cls-2{fill:#2aaae2;}.cls-3{fill:#989898;}.cls-4{fill:#b7e2e4;}.cls-5{fill:#ec2227;}</style></defs><title>Asset 1</title><g id="Layer_2" data-name="Layer 2"><g id="Layer_1-2" data-name="Layer 1"><polygon class="cls-1" points="83.87 492.43 84.72 501.07 40.72 505.43 39.87 496.79 46.91 496.1 51.47 495.64 70.47 493.76 74.96 493.32 83.87 492.43"/><polygon class="cls-1" points="71.72 369.83 72.57 378.46 67.39 378.98 63.66 379.35 58.76 379.83 39.49 381.74 35.62 382.12 32.3 382.45 28.57 382.82 27.72 374.19 42.84 372.69 42.91 372.68 54.1 371.57 71.72 369.83"/><polygon class="cls-1" points="66.45 407.53 74.96 493.32 70.47 493.76 58.76 379.83 63.66 379.35 66.45 407.53"/><path class="cls-2" d="M28.63,23.52,61.5,355.28c.86,8.64-2.38,16.07-7.15,16.54l-34-340C18.28,11.36,7.42.93,9.47,32.88L43.16,372.93h-.07c-4.49.37-8.78-6.31-9.64-15L.58,26.3C-3.16-11.48,25.86-4.39,28.63,23.52Z" transform="translate(-0.25 -0.25)"/><path class="cls-3" d="M59,380.08,70.72,494l-19,1.88L39.74,382ZM57.29,409.9c-.38-3.8-2.76-6.71-5.31-6.45s-4.39,3.57-4,7.37,2.76,6.7,5.39,6.44S57.67,413.69,57.29,409.9Z" transform="translate(-0.25 -0.25)"/><path class="cls-4" d="M20.31,31.81l34,340-11.19,1.11L9.47,32.88C7.42.93,18.28,11.36,20.31,31.81Z" transform="translate(-0.25 -0.25)"/><path class="cls-5" d="M52,403.45c2.55-.26,4.93,2.65,5.31,6.45s-1.39,7.11-3.94,7.36-5-2.64-5.39-6.44S49.35,403.71,52,403.45Z" transform="translate(-0.25 -0.25)"/><polygon class="cls-1" points="39.49 381.74 51.47 495.64 46.91 496.1 40.47 431.03 35.62 382.12 39.49 381.74"/></g></g></svg>